<?xml version="1.0" encoding="utf-8"?>
<!-- Generator: Adobe Illustrator 25.2.0, SVG Export Plug-In . SVG Version: 6.00 Build 0)  -->
<svg version="1.1" id="Layer_1" xmlns="http://www.w3.org/2000/svg" xmlns:xlink="http://www.w3.org/1999/xlink" x="0px" y="0px"
	 viewBox="0 0 208.46 205.86" style="enable-background:new 0 0 208.46 205.86;" xml:space="preserve">
<style type="text/css">
	.st0{fill:none;stroke:#000000;stroke-width:8;stroke-miterlimit:10;}
	.st1{fill:none;stroke:#000000;stroke-width:7;stroke-miterlimit:10;}
	.st2{fill:none;stroke:#000000;stroke-width:6;stroke-miterlimit:10;}
</style>
<polygon class="st0" points="104.27,28.43 104.23,28.47 104.19,28.43 38.57,86.66 38.57,111.91 38.57,113.13 38.57,138.25 
	38.57,177.43 104.23,177.43 169.89,177.43 169.89,138.25 169.89,113.13 169.89,111.91 169.89,86.66 "/>
<circle class="st1" cx="103.86" cy="116.19" r="19.62"/>
<path class="st2" d="M98.61,175.63h10.49c0.26,0,0.47-0.21,0.47-0.47v-37.22c0-0.26-0.21-0.47-0.47-0.47H98.61
	c-0.26,0-0.47,0.21-0.47,0.47v37.22C98.15,175.42,98.36,175.63,98.61,175.63z"/>
<g>
</g>
<g>
</g>
<g>
</g>
<g>
</g>
<g>
</g>
</svg>
