<?xml version="1.0" encoding="utf-8"?>
<!-- Generator: Adobe Illustrator 25.2.0, SVG Export Plug-In . SVG Version: 6.00 Build 0)  -->
<svg version="1.1" id="Layer_1" xmlns="http://www.w3.org/2000/svg" xmlns:xlink="http://www.w3.org/1999/xlink" x="0px" y="0px"
	 viewBox="0 0 368.2 157.1" style="enable-background:new 0 0 368.2 157.1;" xml:space="preserve">
<style type="text/css">
	.st0{fill:url(#SVGID_1_);}
	.st1{fill:url(#SVGID_2_);}
	.st2{fill:url(#SVGID_3_);}
	.st3{fill:url(#SVGID_4_);}
	.st4{fill:url(#SVGID_5_);}
	.st5{fill:url(#SVGID_6_);}
	.st6{fill:url(#SVGID_7_);}
	.st7{fill:url(#SVGID_8_);}
	.st8{fill:url(#SVGID_9_);}
	.st9{fill:url(#SVGID_10_);}
	.st10{fill:url(#SVGID_11_);}
	.st11{fill:url(#SVGID_12_);}
	.st12{fill:url(#SVGID_13_);}
	.st13{fill:url(#SVGID_14_);}
	.st14{fill:url(#SVGID_15_);}
	.st15{fill:url(#SVGID_16_);}
	.st16{fill:url(#SVGID_17_);}
	.st17{fill:url(#SVGID_18_);}
	.st18{fill:url(#SVGID_19_);}
	.st19{fill:url(#SVGID_20_);}
	.st20{fill:url(#SVGID_21_);}
	.st21{fill:url(#SVGID_22_);}
	.st22{fill:url(#SVGID_23_);}
	.st23{fill:url(#SVGID_24_);}
</style>
<g>
	<g>
		<linearGradient id="SVGID_1_" gradientUnits="userSpaceOnUse" x1="28.58" y1="61.635" x2="61.95" y2="61.635">
			<stop  offset="0" style="stop-color:#838BC5"/>
			<stop  offset="1" style="stop-color:#BA9BC9"/>
		</linearGradient>
		<path class="st0" d="M34.7,48.7h-6.1v13.9h6.1v32.5h17.5V62.6H62V48.7h-9.7c0-3.8,1.8-6.6,6.8-6.6c1.2,0,2.2,0.1,2.9,0.2V28.8
			c-1.8-0.3-4.4-0.7-7.7-0.7C37.3,28.1,34.7,40.1,34.7,48.7z"/>
		<linearGradient id="SVGID_2_" gradientUnits="userSpaceOnUse" x1="71.2" y1="63.1" x2="88.71" y2="63.1">
			<stop  offset="0" style="stop-color:#838BC5"/>
			<stop  offset="1" style="stop-color:#BA9BC9"/>
		</linearGradient>
		<rect x="71.2" y="31" class="st1" width="17.5" height="64.1"/>
		<linearGradient id="SVGID_3_" gradientUnits="userSpaceOnUse" x1="130.55" y1="71.395" x2="179.59" y2="71.395">
			<stop  offset="0" style="stop-color:#838BC5"/>
			<stop  offset="1" style="stop-color:#BA9BC9"/>
		</linearGradient>
		<path class="st2" d="M161.5,47.6c-6.7,0-10.9,2.8-13.4,6v-5h-17.5v46.4h17.5v-25c0-3.7,2.7-6.3,7-6.3c4.3,0,7,2.7,7,6.3v25h17.5
			v-29C179.6,59.3,177,47.6,161.5,47.6z"/>
		<linearGradient id="SVGID_4_" gradientUnits="userSpaceOnUse" x1="188.85" y1="63.7" x2="242.16" y2="63.7">
			<stop  offset="0" style="stop-color:#838BC5"/>
			<stop  offset="1" style="stop-color:#BA9BC9"/>
		</linearGradient>
		<path class="st3" d="M224.6,52.5c-2.8-2.9-6.9-4.9-12.8-4.9c-15.4,0-23,12.2-23,24.4c0,12.2,7.6,24.4,23,24.4
			c5.9,0,10-1.9,12.8-4.9v3.8h17.5V31h-17.5V52.5z M215.3,80.2c-5.4,0-8.9-3.5-8.9-8.2c0-4.9,3.4-8.3,8.9-8.3c5.2,0,8.9,3.4,8.9,8.3
			C224.2,76.9,220.5,80.2,215.3,80.2z"/>
		<linearGradient id="SVGID_5_" gradientUnits="userSpaceOnUse" x1="251.4" y1="71.99" x2="302.9353" y2="71.99">
			<stop  offset="0" style="stop-color:#838BC5"/>
			<stop  offset="1" style="stop-color:#BA9BC9"/>
		</linearGradient>
		<path class="st4" d="M277.5,47.6c-15.1,0-26.1,10.8-26.1,24.5c0,14.5,11.3,24.3,27.9,24.3c9.6,0,17.4-4.3,20.9-10.1l-11.8-6.6
			c-1.6,1.7-4.8,3.8-9.1,3.8c-5.7,0-9.4-2.6-10.8-7l34.1-0.1C304.9,57.7,292.1,47.6,277.5,47.6z M268.5,67.6c1.3-4.3,4.5-7.2,9-7.2
			c5.2,0,8.2,2.8,9.1,7.1L268.5,67.6z"/>
		<linearGradient id="SVGID_6_" gradientUnits="userSpaceOnUse" x1="312.23" y1="71.39" x2="344.43" y2="71.39">
			<stop  offset="0" style="stop-color:#838BC5"/>
			<stop  offset="1" style="stop-color:#BA9BC9"/>
		</linearGradient>
		<path class="st5" d="M329.7,56v-7.3h-17.5v46.4h17.5V77.7c0-7.4,1.5-13.7,14.7-12.2V47.6C338.8,47.6,333,50.7,329.7,56z"/>
		<linearGradient id="SVGID_7_" gradientUnits="userSpaceOnUse" x1="101.6" y1="37.89" x2="117.58" y2="37.89">
			<stop  offset="0" style="stop-color:#838BC5"/>
			<stop  offset="1" style="stop-color:#BA9BC9"/>
		</linearGradient>
		<polygon class="st6" points="101.6,41.8 117.6,41.8 109.6,34 		"/>
		<linearGradient id="SVGID_8_" gradientUnits="userSpaceOnUse" x1="100.87" y1="70.2" x2="118.4" y2="70.2">
			<stop  offset="0" style="stop-color:#838BC5"/>
			<stop  offset="1" style="stop-color:#BA9BC9"/>
		</linearGradient>
		<polygon class="st7" points="100.9,48.7 100.9,48.9 100.9,52.4 100.9,58.7 100.9,95.2 118.4,95.2 118.4,58.6 118.4,58.5 
			118.4,45.2 100.9,45.2 		"/>
		<linearGradient id="SVGID_9_" gradientUnits="userSpaceOnUse" x1="93.47" y1="41.47" x2="125.47" y2="41.47">
			<stop  offset="0" style="stop-color:#838BC5"/>
			<stop  offset="1" style="stop-color:#BA9BC9"/>
		</linearGradient>
		<path class="st8" d="M109.5,28.1L109.5,28.1c-8.8,0-16,7-16,15.5v2c0,3.4,1.1,6.6,3.1,9.2v-9.6v-3.4v-0.1l0,0l0,0l13-12.6l0,0l0,0
			l13,12.6l0,0v0.1h0v12.6c1.8-2.5,2.8-5.5,2.8-8.8v-2C125.5,35.1,118.3,28.1,109.5,28.1z"/>
	</g>
	<g>
		<linearGradient id="SVGID_10_" gradientUnits="userSpaceOnUse" x1="36.05" y1="117.475" x2="43.61" y2="117.475">
			<stop  offset="0" style="stop-color:#838BC5"/>
			<stop  offset="1" style="stop-color:#BA9BC9"/>
		</linearGradient>
		<path class="st9" d="M37.1,111.5v5.4h5.8v1.1h-5.8v6.6h-1v-14.2h7.6v1.1H37.1z"/>
		<linearGradient id="SVGID_11_" gradientUnits="userSpaceOnUse" x1="55.78" y1="117.465" x2="63.11" y2="117.465">
			<stop  offset="0" style="stop-color:#838BC5"/>
			<stop  offset="1" style="stop-color:#BA9BC9"/>
		</linearGradient>
		<path class="st10" d="M63.1,123.5v1.1h-7.3v-14.2h1v13.1H63.1z"/>
		<linearGradient id="SVGID_12_" gradientUnits="userSpaceOnUse" x1="74.32" y1="117.475" x2="85.52" y2="117.475">
			<stop  offset="0" style="stop-color:#838BC5"/>
			<stop  offset="1" style="stop-color:#BA9BC9"/>
		</linearGradient>
		<path class="st11" d="M83,120.6h-6.2l-1.4,4h-1.1l5.1-14.2h1.1l5.1,14.2h-1.1L83,120.6z M82.6,119.5l-2.7-7.6l-2.7,7.6H82.6z"/>
		<linearGradient id="SVGID_13_" gradientUnits="userSpaceOnUse" x1="95.38" y1="117.475" x2="103.81" y2="117.475">
			<stop  offset="0" style="stop-color:#838BC5"/>
			<stop  offset="1" style="stop-color:#BA9BC9"/>
		</linearGradient>
		<path class="st12" d="M103.8,111.5h-3.7v13.1h-1v-13.1h-3.7v-1.1h8.4L103.8,111.5L103.8,111.5z"/>
		<linearGradient id="SVGID_14_" gradientUnits="userSpaceOnUse" x1="115.99" y1="117.465" x2="129.49" y2="117.465">
			<stop  offset="0" style="stop-color:#838BC5"/>
			<stop  offset="1" style="stop-color:#BA9BC9"/>
		</linearGradient>
		<path class="st13" d="M129.5,110.4v14.2h-1v-12.2l-5.5,8.5h-0.5l-5.5-8.5v12.2h-1v-14.2h1l5.7,8.9l5.7-8.9H129.5z"/>
		<linearGradient id="SVGID_15_" gradientUnits="userSpaceOnUse" x1="141.28" y1="117.475" x2="152.48" y2="117.475">
			<stop  offset="0" style="stop-color:#838BC5"/>
			<stop  offset="1" style="stop-color:#BA9BC9"/>
		</linearGradient>
		<path class="st14" d="M150,120.6h-6.2l-1.4,4h-1.1l5.1-14.2h1.1l5.1,14.2h-1.1L150,120.6z M149.6,119.5l-2.7-7.6l-2.7,7.6H149.6z"
			/>
		<linearGradient id="SVGID_16_" gradientUnits="userSpaceOnUse" x1="162.34" y1="117.475" x2="170.77" y2="117.475">
			<stop  offset="0" style="stop-color:#838BC5"/>
			<stop  offset="1" style="stop-color:#BA9BC9"/>
		</linearGradient>
		<path class="st15" d="M170.8,111.5H167v13.1h-1v-13.1h-3.7v-1.1h8.4L170.8,111.5L170.8,111.5z"/>
		<linearGradient id="SVGID_17_" gradientUnits="userSpaceOnUse" x1="182.94" y1="117.465" x2="190.4" y2="117.465">
			<stop  offset="0" style="stop-color:#838BC5"/>
			<stop  offset="1" style="stop-color:#BA9BC9"/>
		</linearGradient>
		<path class="st16" d="M190.4,123.5v1.1h-7.5v-14.2h7.3v1.1H184v5.2h5.8v1.1H184v5.7L190.4,123.5L190.4,123.5z"/>
		<linearGradient id="SVGID_18_" gradientUnits="userSpaceOnUse" x1="217.65" y1="117.475" x2="225.21" y2="117.475">
			<stop  offset="0" style="stop-color:#838BC5"/>
			<stop  offset="1" style="stop-color:#BA9BC9"/>
		</linearGradient>
		<path class="st17" d="M218.7,111.5v5.4h5.8v1.1h-5.8v6.6h-1v-14.2h7.6v1.1H218.7z"/>
		<linearGradient id="SVGID_19_" gradientUnits="userSpaceOnUse" x1="237.39" y1="117.465" x2="238.43" y2="117.465">
			<stop  offset="0" style="stop-color:#838BC5"/>
			<stop  offset="1" style="stop-color:#BA9BC9"/>
		</linearGradient>
		<path class="st18" d="M238.4,110.4v14.2h-1v-14.2H238.4z"/>
		<linearGradient id="SVGID_20_" gradientUnits="userSpaceOnUse" x1="251.19" y1="117.465" x2="261.47" y2="117.465">
			<stop  offset="0" style="stop-color:#838BC5"/>
			<stop  offset="1" style="stop-color:#BA9BC9"/>
		</linearGradient>
		<path class="st19" d="M261.5,110.4v14.2h-1l-8.2-12.3v12.3h-1v-14.2h1l8.2,12.3v-12.3H261.5z"/>
		<linearGradient id="SVGID_21_" gradientUnits="userSpaceOnUse" x1="274.23" y1="117.475" x2="284.94" y2="117.475">
			<stop  offset="0" style="stop-color:#838BC5"/>
			<stop  offset="1" style="stop-color:#BA9BC9"/>
		</linearGradient>
		<path class="st20" d="M284.9,117.5c0,4.1-2.8,7.1-6.7,7.1h-4v-14.2h4C282.1,110.4,284.9,113.4,284.9,117.5z M283.9,117.5
			c0-3.4-2.3-6-5.6-6h-3v12h3C281.6,123.5,283.9,120.9,283.9,117.5z"/>
		<linearGradient id="SVGID_22_" gradientUnits="userSpaceOnUse" x1="297.12" y1="117.465" x2="304.58" y2="117.465">
			<stop  offset="0" style="stop-color:#838BC5"/>
			<stop  offset="1" style="stop-color:#BA9BC9"/>
		</linearGradient>
		<path class="st21" d="M304.6,123.5v1.1h-7.5v-14.2h7.3v1.1h-6.3v5.2h5.8v1.1h-5.8v5.7L304.6,123.5L304.6,123.5z"/>
		<linearGradient id="SVGID_23_" gradientUnits="userSpaceOnUse" x1="316.75" y1="117.48" x2="326.05" y2="117.48">
			<stop  offset="0" style="stop-color:#838BC5"/>
			<stop  offset="1" style="stop-color:#BA9BC9"/>
		</linearGradient>
		<path class="st22" d="M324.9,124.6l-3.5-6c-0.2,0-0.5,0-0.8,0h-2.8v5.9h-1v-14.2h3.8c3,0,4.7,1.5,4.7,4.1c0,2-1,3.3-2.9,3.9
			l3.6,6.2L324.9,124.6L324.9,124.6z M320.5,117.6c2.4,0,3.7-1,3.7-3c0-2-1.3-3-3.7-3h-2.8v6.1L320.5,117.6L320.5,117.6z"/>
	</g>
</g>
<linearGradient id="SVGID_24_" gradientUnits="userSpaceOnUse" x1="-256.8387" y1="80.23" x2="-63.1613" y2="80.23">
	<stop  offset="0" style="stop-color:#838BC5"/>
	<stop  offset="1" style="stop-color:#BA9BC9"/>
</linearGradient>
<path class="st23" d="M-103.6,174.3h-112.9c-22.2,0-40.4-18.2-40.4-40.4V26.6c0-22.2,18.2-40.4,40.4-40.4h112.9
	c22.2,0,40.4,18.2,40.4,40.4v107.3C-63.2,156.1-81.3,174.3-103.6,174.3z"/>
</svg>
