<?xml version="1.0" encoding="utf-8"?>
<!-- Generator: Adobe Illustrator 25.2.0, SVG Export Plug-In . SVG Version: 6.00 Build 0)  -->
<svg version="1.1" id="Layer_1" xmlns="http://www.w3.org/2000/svg" xmlns:xlink="http://www.w3.org/1999/xlink" x="0px" y="0px"
	 viewBox="0 0 368.25 157.14" style="enable-background:new 0 0 368.25 157.14;" xml:space="preserve">
<g>
	<g>
		<path d="M34.71,48.72h-6.13v13.92h6.13v32.52h17.51V62.64h9.73V48.72h-9.73c0-3.76,1.75-6.6,6.81-6.6c1.17,0,2.24,0.09,2.92,0.18
			V28.84c-1.85-0.28-4.38-0.73-7.69-0.73C37.33,28.11,34.71,40.11,34.71,48.72z"/>
		<rect x="71.2" y="31.04" width="17.51" height="64.12"/>
		<path d="M161.49,47.62c-6.71,0-10.9,2.75-13.43,6.05v-4.95h-17.51v46.44h17.51V70.16c0-3.66,2.72-6.32,7.01-6.32
			c4.28,0,7.01,2.66,7.01,6.32v25.01h17.51V66.13C179.59,59.35,176.97,47.62,161.49,47.62z"/>
		<path d="M224.65,52.48c-2.82-2.93-6.91-4.86-12.84-4.86c-15.37,0-22.96,12.18-22.96,24.37c0,12.18,7.59,24.37,22.96,24.37
			c5.94,0,10.02-1.92,12.84-4.95v3.76h17.51V31.04h-17.51V52.48z M215.3,80.23c-5.45,0-8.85-3.48-8.85-8.24
			c0-4.86,3.41-8.34,8.85-8.34c5.16,0,8.85,3.39,8.85,8.34C224.16,76.93,220.46,80.23,215.3,80.23z"/>
		<path d="M277.48,47.62c-15.08,0-26.08,10.81-26.08,24.46c0,14.47,11.29,24.28,27.93,24.28c9.63,0,17.42-4.31,20.92-10.08
			l-11.77-6.6c-1.56,1.74-4.77,3.85-9.15,3.85c-5.74,0-9.44-2.56-10.8-6.96l34.15-0.09C304.92,57.7,292.08,47.62,277.48,47.62z
			 M268.53,67.59c1.27-4.31,4.48-7.15,8.95-7.15c5.16,0,8.17,2.75,9.15,7.05L268.53,67.59z"/>
		<path d="M329.74,56.05v-7.33h-17.51v46.44h17.51v-17.5c0-7.42,1.46-13.65,14.69-12.18V47.62
			C338.79,47.62,333.05,50.74,329.74,56.05z"/>
		<polygon points="101.6,41.77 117.58,41.77 109.59,34.01 		"/>
		<polygon points="100.87,48.72 100.87,48.89 100.87,52.36 100.87,58.7 100.87,95.16 118.39,95.16 118.39,58.56 118.4,58.55 
			118.4,45.24 100.87,45.24 		"/>
		<path d="M109.47,28.11L109.47,28.11c-8.83,0-16,6.96-16,15.54v2.01c0,3.43,1.14,6.6,3.08,9.17v-9.59v-3.36v-0.11h0l0,0l13-12.63
			l0.04,0.04l0.04-0.04l13,12.63l-0.01,0.01v0.1h0.01v12.62c1.79-2.51,2.84-5.55,2.84-8.84v-2.01
			C125.47,35.07,118.3,28.11,109.47,28.11z"/>
	</g>
	<g>
		<path d="M37.07,111.48v5.39h5.8v1.07h-5.8v6.62h-1.02v-14.17h7.56v1.09H37.07z"/>
		<path d="M63.11,123.48v1.07h-7.33v-14.17h1.04v13.1H63.11z"/>
		<path d="M83,120.59h-6.17l-1.41,3.97h-1.1l5.05-14.17h1.1l5.05,14.17h-1.1L83,120.59z M82.61,119.5l-2.69-7.55l-2.71,7.55H82.61z"
			/>
		<path d="M103.8,111.48h-3.71v13.08h-1.02v-13.08h-3.69v-1.09h8.43V111.48z"/>
		<path d="M129.49,110.38v14.17h-1.02v-12.15l-5.49,8.54h-0.48l-5.49-8.54v12.15h-1.02v-14.17H117l5.74,8.87l5.72-8.87H129.49z"/>
		<path d="M149.96,120.59h-6.17l-1.41,3.97h-1.1l5.05-14.17h1.1l5.05,14.17h-1.1L149.96,120.59z M149.57,119.5l-2.69-7.55
			l-2.71,7.55H149.57z"/>
		<path d="M170.76,111.48h-3.71v13.08h-1.02v-13.08h-3.69v-1.09h8.43V111.48z"/>
		<path d="M190.4,123.48v1.07h-7.46v-14.17h7.29v1.09h-6.26v5.2h5.82v1.07h-5.82v5.73H190.4z"/>
		<path d="M218.67,111.48v5.39h5.8v1.07h-5.8v6.62h-1.02v-14.17h7.56v1.09H218.67z"/>
		<path d="M238.43,110.38v14.17h-1.04v-14.17H238.43z"/>
		<path d="M261.47,110.38v14.17h-1.02l-8.24-12.33v12.33h-1.02v-14.17h1.02l8.24,12.33v-12.33H261.47z"/>
		<path d="M284.94,117.47c0,4.05-2.8,7.09-6.67,7.09h-4.04v-14.17h4.04C282.14,110.38,284.94,113.42,284.94,117.47z M283.92,117.47
			c0-3.44-2.34-5.99-5.65-5.99h-3.02v12.01h3.02C281.58,123.48,283.92,120.93,283.92,117.47z"/>
		<path d="M304.58,123.48v1.07h-7.46v-14.17h7.29v1.09h-6.26v5.2h5.82v1.07h-5.82v5.73H304.58z"/>
		<path d="M324.86,124.56l-3.54-5.97c-0.25,0.02-0.52,0.04-0.79,0.04h-2.75v5.93h-1.03v-14.17h3.77c2.96,0,4.74,1.52,4.74,4.13
			c0,1.98-1.04,3.34-2.86,3.87l3.65,6.18H324.86z M320.53,117.55c2.38,0,3.71-1.03,3.71-3.04c0-2.03-1.33-3.04-3.71-3.04h-2.75v6.07
			H320.53z"/>
	</g>
</g>
<g>
</g>
<g>
</g>
<g>
</g>
<g>
</g>
<g>
</g>
</svg>
