<?xml version="1.0" encoding="utf-8"?>
<!-- Generator: Adobe Illustrator 25.2.0, SVG Export Plug-In . SVG Version: 6.00 Build 0)  -->
<svg version="1.1" id="Layer_1" xmlns="http://www.w3.org/2000/svg" xmlns:xlink="http://www.w3.org/1999/xlink" x="0px" y="0px"
	 viewBox="0 0 341 87" style="enable-background:new 0 0 341 87;" xml:space="preserve">
<style type="text/css">
	.st0{fill:#FFFFFF;}
</style>
<g>
	<path class="st0" d="M17.7,32.7h-6.1v13.9h6.1v32.5h17.5V46.6H45V32.7h-9.7c0-3.8,1.8-6.6,6.8-6.6c1.2,0,2.2,0.1,2.9,0.2V12.8
		c-1.8-0.3-4.4-0.7-7.7-0.7C20.3,12.1,17.7,24.1,17.7,32.7z"/>
	<rect x="54.2" y="15" class="st0" width="17.5" height="64.1"/>
	<path class="st0" d="M144.5,31.6c-6.7,0-10.9,2.8-13.4,6v-5h-17.5v46.4h17.5v-25c0-3.7,2.7-6.3,7-6.3c4.3,0,7,2.7,7,6.3v25h17.5
		v-29C162.6,43.3,160,31.6,144.5,31.6z"/>
	<path class="st0" d="M207.6,36.5c-2.8-2.9-6.9-4.9-12.8-4.9c-15.4,0-23,12.2-23,24.4c0,12.2,7.6,24.4,23,24.4
		c5.9,0,10-1.9,12.8-4.9v3.8h17.5V15h-17.5V36.5z M198.3,64.2c-5.4,0-8.9-3.5-8.9-8.2c0-4.9,3.4-8.3,8.9-8.3c5.2,0,8.9,3.4,8.9,8.3
		C207.2,60.9,203.5,64.2,198.3,64.2z"/>
	<path class="st0" d="M260.5,31.6c-15.1,0-26.1,10.8-26.1,24.5c0,14.5,11.3,24.3,27.9,24.3c9.6,0,17.4-4.3,20.9-10.1l-11.8-6.6
		c-1.6,1.7-4.8,3.8-9.1,3.8c-5.7,0-9.4-2.6-10.8-7l34.1-0.1C287.9,41.7,275.1,31.6,260.5,31.6z M251.5,51.6c1.3-4.3,4.5-7.2,9-7.2
		c5.2,0,8.2,2.8,9.1,7.1L251.5,51.6z"/>
	<path class="st0" d="M312.7,40v-7.3h-17.5v46.4h17.5V61.7c0-7.4,1.5-13.7,14.7-12.2V31.6C321.8,31.6,316,34.7,312.7,40z"/>
	<polygon class="st0" points="84.6,25.8 100.6,25.8 92.6,18 	"/>
	<polygon class="st0" points="83.9,32.7 83.9,32.9 83.9,36.4 83.9,42.7 83.9,79.2 101.4,79.2 101.4,42.6 101.4,42.5 101.4,29.2 
		83.9,29.2 	"/>
	<path class="st0" d="M92.5,12.1L92.5,12.1c-8.8,0-16,7-16,15.5v2c0,3.4,1.1,6.6,3.1,9.2v-9.6v-3.4v-0.1l0,0l0,0l13-12.6l0,0l0,0
		l13,12.6l0,0v0.1h0v12.6c1.8-2.5,2.8-5.5,2.8-8.8v-2C108.5,19.1,101.3,12.1,92.5,12.1z"/>
</g>
</svg>
